HIERARCHY
ROOT Hips
{
	OFFSET 0.00000 0.00000 0.00000
	CHANNELS 6 Xposition Yposition Zposition Zrotation Yrotation Xrotation 
	JOINT LHipJoint
	{
		OFFSET 0 0 0
		CHANNELS 3 Zrotation Yrotation Xrotation
		JOINT LeftUpLeg
		{
			OFFSET 1.61328 -1.70571 0.84375
			CHANNELS 3 Zrotation Yrotation Xrotation
			JOINT LeftLeg
			{
				OFFSET 2.32400 -6.38513 0.00000
				CHANNELS 3 Zrotation Yrotation Xrotation
				JOINT LeftFoot
				{
					OFFSET 2.58843 -7.11166 0.00000
					CHANNELS 3 Zrotation Yrotation Xrotation
					JOINT LeftToeBase
					{
						OFFSET 0.17200 -0.47257 2.47970
						CHANNELS 3 Zrotation Yrotation Xrotation
						End Site
						{
							OFFSET 0.00000 -0.00000 1.26912
						}
					}
				}
			}
		}
	}
	JOINT RHipJoint
	{
		OFFSET 0 0 0
		CHANNELS 3 Zrotation Yrotation Xrotation
		JOINT RightUpLeg
		{
			OFFSET -1.49930 -1.70570 0.84375
			CHANNELS 3 Zrotation Yrotation Xrotation
			JOINT RightLeg
			{
				OFFSET -2.30458 -6.33178 0.00000
				CHANNELS 3 Zrotation Yrotation Xrotation
				JOINT RightFoot
				{
					OFFSET -2.62261 -7.20556 0.00000
					CHANNELS 3 Zrotation Yrotation Xrotation
					JOINT RightToeBase
					{
						OFFSET -0.18709 -0.51403 2.51340
						CHANNELS 3 Zrotation Yrotation Xrotation
						End Site
						{
							OFFSET -0.00000 -0.00000 1.28858
						}
					}
				}
			}
		}
	}
	JOINT LowerBack
	{
		OFFSET 0 0 0
		CHANNELS 3 Zrotation Yrotation Xrotation
		JOINT Spine
		{
			OFFSET -0.03798 2.19274 -0.19881
			CHANNELS 3 Zrotation Yrotation Xrotation
			JOINT Spine1
			{
				OFFSET -0.00024 2.19460 0.05248
				CHANNELS 3 Zrotation Yrotation Xrotation
				JOINT Neck
				{
					OFFSET 0 0 0
					CHANNELS 3 Zrotation Yrotation Xrotation
					JOINT Neck1
					{
						OFFSET -0.00746 1.82323 0.17286
						CHANNELS 3 Zrotation Yrotation Xrotation
						JOINT Head
						{
							OFFSET 0.11826 1.82121 -0.27841
							CHANNELS 3 Zrotation Yrotation Xrotation
							End Site
							{
								OFFSET 0.03496 1.85543 -0.11495
							}
						}
					}
				}
				JOINT LeftShoulder
				{
					OFFSET 0 0 0
					CHANNELS 3 Zrotation Yrotation Xrotation
					JOINT LeftArm
					{
						OFFSET 3.71926 0.78840 0.25473
						CHANNELS 3 Zrotation Yrotation Xrotation
						JOINT LeftForeArm
						{
							OFFSET 5.37587 -0.00000 0.00000
							CHANNELS 3 Zrotation Yrotation Xrotation
							JOINT LeftHand
							{
								OFFSET 3.35977 -0.00000 0.00000
								CHANNELS 3 Zrotation Yrotation Xrotation
								JOINT LeftFingerBase
								{
									OFFSET 0 0 0
									CHANNELS 3 Zrotation Yrotation Xrotation
									JOINT LeftHandIndex1
									{
										OFFSET 0.56186 -0.00000 0.00000
										CHANNELS 3 Zrotation Yrotation Xrotation
										End Site
										{
											OFFSET 0.45299 -0.00000 0.00000
										}
									}
								}
								JOINT LThumb
								{
									OFFSET 0 0 0
									CHANNELS 3 Zrotation Yrotation Xrotation
									End Site
									{
										OFFSET 0.45990 -0.00000 0.45990
									}
								}
							}
						}
					}
				}
				JOINT RightShoulder
				{
					OFFSET 0 0 0
					CHANNELS 3 Zrotation Yrotation Xrotation
					JOINT RightArm
					{
						OFFSET -3.65136 0.56074 0.01624
						CHANNELS 3 Zrotation Yrotation Xrotation
						JOINT RightForeArm
						{
							OFFSET -5.22819 -0.00000 0.00000
							CHANNELS 3 Zrotation Yrotation Xrotation
							JOINT RightHand
							{
								OFFSET -3.40764 -0.00000 0.00000
								CHANNELS 3 Zrotation Yrotation Xrotation
								JOINT RightFingerBase
								{
									OFFSET 0 0 0
									CHANNELS 3 Zrotation Yrotation Xrotation
									JOINT RightHandIndex1
									{
										OFFSET -0.58325 -0.00000 0.00000
										CHANNELS 3 Zrotation Yrotation Xrotation
										End Site
										{
											OFFSET -0.47024 -0.00000 0.00000
										}
									}
								}
								JOINT RThumb
								{
									OFFSET 0 0 0
									CHANNELS 3 Zrotation Yrotation Xrotation
									End Site
									{
										OFFSET -0.47742 -0.00000 0.47742
									}
								}
							}
						}
					}
				}
			}
		}
	}
}
MOTION
Frames: 11
Frame Time: .0083333
48.2808 16.639 -7.3454 0 0 0 0 0 0 -21 0 0 0 0 0 0 0 0 0 0 0 0 0 0 21 0 0 0 0 0 0 0 0 0 0 0 0 0 0 0 0 0 0 0 0 0 0 -16 0 0 21 0 0 11 0 0 0 -8 0 0 0 0 0 0 0 0 0 0 0 0 0 0 0 0 0 0 0 0 8 0 0 0 0 0 0 0 0 0 0 0 0 0 0 0 0 0
48.2808 16.6390 -7.3454 -12.6354 -85.7621 12.3452 0.0000 0.0000 0.0000 -18.8224 0.3041 -5.4617 1.6873 8.1820 23.2682 0.8366 0.6785 -17.5418 0.0596 -1.5752 -4.3331 0.0000 0.0000 0.0000 20.7774 0.8520 -11.6667 -3.5362 -11.5163 34.0414 -2.0378 -0.1819 -27.0975 -0.8598 -5.9132 16.5327 -1.3592 -0.0368 -3.8838 0.9237 -0.0286 3.1597 1.7177 -0.0944 5.4544 -3.1586 -2.6920 -8.1878 6.1771 -3.5115 0.0236 2.3928 -1.6497 1.6129 -0.0000 -0.0000 0.0000 -89.1245 -15.5610 9.5818 -0.5404 0.9358 -0.0044 -0.0000 -0.0000 22.0120 20.2388 22.3959 7.9963 -7.1250 0.0000 -0.0000 -9.0853 53.4633 -1.9033 -0.0000 -0.0000 0.0000 79.5238 2.2134 40.9308 -13.2525 21.6560 -2.5457 0.0000 0.0000 12.2531 -4.6917 3.8750 -0.3178 7.1250 -0.0000 -0.0000 16.4544 -26.0141 7.8807
48.2736 16.6390 -7.3480 -13.2807 -85.7485 12.9973 0.0000 0.0000 0.0000 -18.7504 0.3007 -5.4558 1.6889 8.1855 23.2789 0.8396 0.6602 -17.5658 0.0588 -1.5649 -4.3046 0.0000 0.0000 0.0000 20.8622 0.9359 -11.6102 -3.5336 -11.5125 34.0284 -2.0530 -0.2132 -27.2090 -0.8695 -5.9454 16.6260 -1.3160 -0.1120 -3.8029 0.9576 -0.1356 3.1958 1.7195 -0.1472 5.4503 -3.1255 -2.6062 -8.3922 6.0619 -3.3928 -0.0045 2.3522 -1.5907 1.6301 -0.0000 -0.0000 0.0000 -89.5358 -14.6325 9.3989 -0.6739 1.1670 -0.0069 -0.0000 -0.0000 21.2892 21.0769 24.7962 9.1816 -7.1250 0.0000 -0.0000 -9.2059 56.0831 -2.5178 -0.0000 -0.0000 0.0000 80.2854 2.1992 38.1575 -11.9167 19.6796 -2.0742 0.0000 0.0000 14.9041 -5.5362 4.0073 -0.3881 7.1250 -0.0000 -0.0000 15.8175 -25.8890 7.6001
48.2692 16.6393 -7.3463 -12.3815 -85.7565 12.1582 0.0000 0.0000 0.0000 -18.8303 0.2942 -5.4999 1.6897 8.1875 23.2849 0.8397 0.6631 -17.5681 0.0598 -1.5785 -4.3422 0.0000 0.0000 0.0000 20.7706 0.8920 -11.6765 -3.5336 -11.5125 34.0284 -2.0499 -0.1841 -27.1788 -0.8592 -5.9112 16.5270 -1.3432 -0.1774 -3.7754 0.9541 -0.2216 3.1992 1.7238 -0.1908 5.4418 -3.1005 -2.5173 -8.3976 5.9474 -3.2682 -0.1438 2.3145 -1.5328 1.5755 -0.0000 -0.0000 0.0000 -89.8270 -13.3936 9.2429 -0.5550 0.9612 -0.0047 -0.0000 -0.0000 20.8942 21.4282 26.2524 9.8482 -7.1250 0.0000 -0.0000 -9.5091 57.6421 -2.9610 -0.0000 -0.0000 0.0000 80.9794 2.0588 35.1287 -10.7910 17.9672 -1.7109 0.0000 0.0000 17.3900 -6.4697 3.8183 -0.4327 7.1250 -0.0000 -0.0000 15.1540 -26.0735 7.1905
48.2627 16.6395 -7.3488 -12.9482 -85.7653 12.7476 0.0000 0.0000 0.0000 -18.7729 0.2979 -5.5230 1.6909 8.1903 23.2934 0.8391 0.6787 -17.5678 0.0629 -1.6178 -4.4506 0.0000 0.0000 0.0000 20.8408 0.9784 -11.6495 -3.5324 -11.5108 34.0225 -2.0554 -0.2437 -27.2356 -0.8559 -5.9001 16.4949 -1.2980 -0.2439 -3.7024 0.9794 -0.3164 3.2257 1.7168 -0.2370 5.4315 -3.0267 -2.4144 -8.4598 5.7796 -3.1268 -0.3255 2.2505 -1.4677 1.5141 0.0000 -0.0000 0.0000 -89.9167 -12.1539 9.0262 -0.3652 0.6326 -0.0020 -0.0000 -0.0000 21.0723 20.9839 25.8238 9.4850 -7.1250 0.0000 -0.0000 -9.7774 57.1098 -2.9198 0.0000 -0.0000 0.0000 81.6252 1.8048 32.1714 -10.0496 16.8172 -1.4893 0.0000 0.0000 19.3261 -6.8621 3.4970 -0.4206 7.1250 -0.0000 -0.0000 14.9034 -26.3865 6.9501
48.2568 16.6399 -7.3503 -13.0609 -85.7726 12.9010 0.0000 0.0000 0.0000 -18.7567 0.2962 -5.5557 1.6911 8.1907 23.2947 0.8386 0.6922 -17.5675 0.0655 -1.6506 -4.5411 0.0000 0.0000 0.0000 20.8635 1.0357 -11.6566 -3.5326 -11.5111 34.0235 -2.0604 -0.2842 -27.2822 -0.8489 -5.8765 16.4264 -1.2807 -0.3105 -3.6474 0.9993 -0.4087 3.2464 1.7202 -0.2830 5.4255 -2.9722 -2.3198 -8.5250 5.6286 -2.9964 -0.4825 2.1953 -1.4072 1.4632 -0.0000 -0.0000 0.0000 -90.0634 -10.9408 8.8254 -0.2002 0.3467 -0.0006 -0.0000 -0.0000 21.0052 20.7494 25.9165 9.4018 -7.1250 0.0000 -0.0000 -10.0718 57.1533 -3.0195 -0.0000 -0.0000 0.0000 82.2514 1.6142 28.6944 -9.2584 15.5713 -1.2686 0.0000 0.0000 21.7581 -7.5224 3.2472 -0.4286 7.1250 -0.0000 -0.0000 14.4435 -26.6314 6.6359
48.2509 16.6405 -7.3517 -13.1464 -85.7896 13.0340 0.0000 0.0000 0.0000 -18.7466 0.2926 -5.5961 1.6918 8.1922 23.2994 0.8383 0.7122 -17.5726 0.0680 -1.6829 -4.6300 0.0000 0.0000 0.0000 20.8811 1.0975 -11.6697 -3.5322 -11.5104 34.0213 -2.0637 -0.3316 -27.3197 -0.8388 -5.8421 16.3269 -1.2685 -0.3724 -3.5955 1.0210 -0.4947 3.2694 1.7288 -0.3260 5.4234 -2.9140 -2.2271 -8.5884 5.4673 -2.8687 -0.6622 2.1359 -1.3488 1.4047 -0.0000 -0.0000 0.0000 -90.1514 -9.6928 8.6238 0.0312 -0.0540 -0.0000 -0.0000 -0.0000 20.9964 20.2809 25.4878 9.0354 -7.1250 0.0000 -0.0000 -10.3619 56.6195 -2.9736 -0.0000 -0.0000 0.0000 82.8143 1.3615 25.2474 -8.6446 14.5923 -1.1089 0.0000 0.0000 23.8914 -8.4475 3.0291 -0.4496 7.1250 -0.0000 -0.0000 13.7792 -26.8465 6.2411
48.2449 16.6411 -7.3531 -13.2094 -85.8172 13.1486 0.0000 0.0000 0.0000 -18.7434 0.2850 -5.6310 1.6912 8.1909 23.2954 0.8384 0.7418 -17.5847 0.0703 -1.7110 -4.7077 0.0000 0.0000 0.0000 20.8927 1.1627 -11.6902 -3.5328 -11.5113 34.0244 -2.0670 -0.3674 -27.3537 -0.8305 -5.8141 16.2460 -1.2602 -0.4268 -3.5427 1.0436 -0.5702 3.2923 1.7416 -0.3641 5.4206 -2.8551 -2.1399 -8.6469 5.3027 -2.7487 -0.8615 2.0752 -1.2945 1.3397 0.0000 -0.0000 0.0000 -90.3509 -8.0235 8.4428 0.7659 -1.3262 -0.0089 -0.0000 -0.0000 20.9581 19.3653 24.9506 8.4335 -7.1250 0.0000 -0.0000 -11.0663 55.8873 -2.9820 0.0000 -0.0000 0.0000 83.3109 1.0256 22.0547 -8.2050 13.8846 -1.0007 0.0000 0.0000 25.5304 -9.5266 2.8736 -0.4820 7.1250 -0.0000 -0.0000 12.9880 -27.0007 5.8159
48.2392 16.6417 -7.3540 -13.1877 -85.8608 13.1817 0.0000 0.0000 0.0000 -18.7556 0.2773 -5.6606 1.6897 8.1875 23.2850 0.8390 0.7823 -17.6069 0.0720 -1.7312 -4.7635 0.0000 0.0000 0.0000 20.8877 1.2193 -11.7217 -3.5343 -11.5135 34.0320 -2.0688 -0.3816 -27.3704 -0.8237 -5.7908 16.1785 -1.2567 -0.4686 -3.4876 1.0643 -0.6287 3.3126 1.7565 -0.3938 5.4130 -2.7984 -2.0622 -8.6874 5.1416 -2.6417 -1.0816 2.0155 -1.2472 1.2660 0.0000 0.0000 0.0000 -90.5234 -6.2540 8.2808 1.6299 -2.8205 -0.0401 -0.0000 -0.0000 20.7386 18.3128 24.1224 7.7032 -7.1250 0.0000 -0.0000 -11.7674 54.8451 -2.8751 0.0000 0.0000 0.0000 83.7373 0.5783 19.3913 -7.9395 13.4548 -0.9380 0.0000 0.0000 26.4145 -10.7801 2.8098 -0.5348 7.1250 -0.0000 -0.0000 12.0516 -27.0634 5.3597
48.2330 16.6421 -7.3549 -13.0899 -85.9060 13.1310 0.0000 0.0000 0.0000 -18.7729 0.2777 -5.6754 1.6876 8.1825 23.2698 0.8400 0.8150 -17.6308 0.0730 -1.7428 -4.7953 0.0000 0.0000 0.0000 20.8767 1.2697 -11.7444 -3.5364 -11.5165 34.0423 -2.0715 -0.3817 -27.3883 -0.8201 -5.7782 16.1421 -1.2632 -0.5011 -3.4286 1.0851 -0.6741 3.3335 1.7784 -0.4174 5.4034 -2.7462 -1.9956 -8.7020 4.9919 -2.5501 -1.3246 1.9601 -1.2079 1.1818 0.0000 -0.0000 0.0000 -90.6511 -4.4546 8.1428 2.5509 -4.4081 -0.0982 -0.0000 -0.0000 20.2513 17.2048 23.0996 6.9265 -7.1250 0.0000 -0.0000 -12.4310 53.6118 -2.6645 0.0000 -0.0000 0.0000 84.0984 0.0052 17.4384 -7.8408 13.2944 -0.9152 0.0000 0.0000 26.3965 -12.1215 2.8288 -0.6073 7.1250 -0.0000 -0.0000 11.0373 -27.0410 4.8978
48.2266 16.6422 -7.3557 -12.8666 -85.9443 12.9447 0.0000 0.0000 0.0000 -18.7961 0.2864 -5.6758 1.6849 8.1763 23.2508 0.8413 0.8337 -17.6510 0.0735 -1.7489 -4.8122 0.0000 0.0000 0.0000 20.8580 1.3042 -11.7569 -3.5388 -11.5200 34.0544 -2.0752 -0.3639 -27.4067 -0.8208 -5.7806 16.1493 -1.2781 -0.5259 -3.3648 1.1025 -0.7087 3.3558 1.8024 -0.4359 5.3922 -2.7025 -1.9414 -8.6939 4.8667 -2.4753 -1.5826 1.9136 -1.1770 1.0906 -0.0000 0.0000 0.0000 -90.7296 -2.7099 8.0339 3.4440 -5.9402 -0.1787 -0.0000 -0.0000 19.4455 16.1085 21.7875 6.1182 -7.1250 0.0000 -0.0000 -12.9598 52.1090 -2.3000 -0.0000 0.0000 0.0000 84.4065 -0.6861 16.2473 -7.8929 13.3792 -0.9272 0.0000 0.0000 25.4124 -13.3874 2.9239 -0.6956 7.1250 -0.0000 -0.0000 10.0713 -26.9388 4.4805
